<?xml version="1.0" encoding="UTF-8" standalone="no"?>
<!DOCTYPE svg PUBLIC "-//W3C//DTD SVG 1.1//EN"
 "http://www.w3.org/Graphics/SVG/1.1/DTD/svg11.dtd">
<!-- Generated by graphviz version 2.38.0 (20140413.2041)
 -->
<!-- Title: Hash Pages: 1 -->
<svg width="117pt" height="311pt"
 viewBox="0.00 0.00 117.00 311.00" xmlns="http://www.w3.org/2000/svg" xmlns:xlink="http://www.w3.org/1999/xlink">
<g id="graph0" class="graph" transform="scale(1 1) rotate(0) translate(4 307)">
<title>Hash</title>
<polygon fill="white" stroke="none" points="-4,4 -4,-307 113,-307 113,4 -4,4"/>
<!-- v6 -->
<g id="node1" class="node"><title>v6</title>
<polygon fill="#e0eeee" stroke="black" points="10,-0.5 10,-36.5 99,-36.5 99,-0.5 10,-0.5"/>
<text text-anchor="middle" x="21.5" y="-14.8" font-family="Times New Roman,serif" font-size="14.00">6</text>
<polyline fill="none" stroke="black" points="33,-0.5 33,-36.5 "/>
<text text-anchor="middle" x="66" y="-14.8" font-family="Times New Roman,serif" font-size="14.00">&#45; Vacio &#45;</text>
</g>
<!-- v5 -->
<g id="node2" class="node"><title>v5</title>
<polygon fill="#e0eeee" stroke="black" points="10,-38.5 10,-74.5 99,-74.5 99,-38.5 10,-38.5"/>
<text text-anchor="middle" x="21.5" y="-52.8" font-family="Times New Roman,serif" font-size="14.00">5</text>
<polyline fill="none" stroke="black" points="33,-38.5 33,-74.5 "/>
<text text-anchor="middle" x="66" y="-52.8" font-family="Times New Roman,serif" font-size="14.00">&#45; Vacio &#45;</text>
</g>
<!-- v4 -->
<g id="node3" class="node"><title>v4</title>
<polygon fill="#e0eeee" stroke="black" points="10,-76.5 10,-112.5 99,-112.5 99,-76.5 10,-76.5"/>
<text text-anchor="middle" x="21.5" y="-90.8" font-family="Times New Roman,serif" font-size="14.00">4</text>
<polyline fill="none" stroke="black" points="33,-76.5 33,-112.5 "/>
<text text-anchor="middle" x="66" y="-90.8" font-family="Times New Roman,serif" font-size="14.00">&#45; Vacio &#45;</text>
</g>
<!-- v3 -->
<g id="node4" class="node"><title>v3</title>
<polygon fill="#e0eeee" stroke="black" points="0,-114.5 0,-150.5 109,-150.5 109,-114.5 0,-114.5"/>
<text text-anchor="middle" x="11.5" y="-128.8" font-family="Times New Roman,serif" font-size="14.00">3</text>
<polyline fill="none" stroke="black" points="23,-114.5 23,-150.5 "/>
<text text-anchor="middle" x="66" y="-128.8" font-family="Times New Roman,serif" font-size="14.00">&#45; Nombre: f&#45;</text>
</g>
<!-- Nonenode -->
<g id="node5" class="node"><title>Nonenode</title>
<polygon fill="#e0eeee" stroke="black" points="10,-152.5 10,-188.5 99,-188.5 99,-152.5 10,-152.5"/>
<text text-anchor="middle" x="21.5" y="-166.8" font-family="Times New Roman,serif" font-size="14.00">2</text>
<polyline fill="none" stroke="black" points="33,-152.5 33,-188.5 "/>
<text text-anchor="middle" x="66" y="-166.8" font-family="Times New Roman,serif" font-size="14.00">&#45; Vacio &#45;</text>
</g>
<!-- v2 -->
<g id="node6" class="node"><title>v2</title>
<polygon fill="#e0eeee" stroke="black" points="0,-190.5 0,-226.5 109,-226.5 109,-190.5 0,-190.5"/>
<text text-anchor="middle" x="11.5" y="-204.8" font-family="Times New Roman,serif" font-size="14.00">3</text>
<polyline fill="none" stroke="black" points="23,-190.5 23,-226.5 "/>
<text text-anchor="middle" x="66" y="-204.8" font-family="Times New Roman,serif" font-size="14.00">&#45; Nombre: f&#45;</text>
</g>
<!-- v1 -->
<g id="node7" class="node"><title>v1</title>
<polygon fill="#e0eeee" stroke="black" points="10,-228.5 10,-264.5 99,-264.5 99,-228.5 10,-228.5"/>
<text text-anchor="middle" x="21.5" y="-242.8" font-family="Times New Roman,serif" font-size="14.00">1</text>
<polyline fill="none" stroke="black" points="33,-228.5 33,-264.5 "/>
<text text-anchor="middle" x="66" y="-242.8" font-family="Times New Roman,serif" font-size="14.00">&#45; Vacio &#45;</text>
</g>
<!-- v0 -->
<g id="node8" class="node"><title>v0</title>
<polygon fill="#e0eeee" stroke="black" points="10,-266.5 10,-302.5 99,-302.5 99,-266.5 10,-266.5"/>
<text text-anchor="middle" x="21.5" y="-280.8" font-family="Times New Roman,serif" font-size="14.00">0</text>
<polyline fill="none" stroke="black" points="33,-266.5 33,-302.5 "/>
<text text-anchor="middle" x="66" y="-280.8" font-family="Times New Roman,serif" font-size="14.00">&#45; Vacio &#45;</text>
</g>
</g>
</svg>
